<?xml version="1.0" encoding="UTF-8"?>
<svg version="1.1" xmlns="http://www.w3.org/2000/svg" width="1024" height="1024">
<path d="M0 0 C337.92 0 675.84 0 1024 0 C1024 337.92 1024 675.84 1024 1024 C686.08 1024 348.16 1024 0 1024 C0 686.08 0 348.16 0 0 Z " fill="#FEFEFE" transform="translate(0,0)"/>
<path d="M0 0 C2.56999721 1.09759663 4.03068067 2.49506225 5.99267578 4.48486328 C6.72421875 5.2215625 7.45576172 5.95826172 8.20947266 6.71728516 C8.96421875 7.49265625 9.71896484 8.26802734 10.49658203 9.06689453 C11.62290039 10.20094727 11.62290039 10.20094727 12.77197266 11.35791016 C16.74494161 15.3867872 20.49327721 19.48817193 24.05908203 23.87939453 C25.70338032 25.56813332 27.37292421 27.23244968 29.05908203 28.87939453 C33.63292823 33.35654208 38.04452193 37.89458867 42.21142578 42.75439453 C44.27996102 45.13342871 46.42035466 47.43834458 48.55908203 49.75439453 C52.2250627 53.8062679 55.3675852 58.02095298 58.41845703 62.54736328 C59.99702962 64.79119147 61.6783305 66.82748918 63.49658203 68.87939453 C66.05908203 71.87939453 66.05908203 71.87939453 66.05908203 73.87939453 C66.71908203 73.87939453 67.37908203 73.87939453 68.05908203 73.87939453 C69.78564453 75.99658203 69.78564453 75.99658203 71.68408203 78.75439453 C72.31572266 79.65931641 72.94736328 80.56423828 73.59814453 81.49658203 C75.05908203 83.87939453 75.05908203 83.87939453 75.05908203 85.87939453 C75.71908203 85.87939453 76.37908203 85.87939453 77.05908203 85.87939453 C78.35595703 87.53173828 78.35595703 87.53173828 79.80908203 89.81689453 C80.33244141 90.63158203 80.85580078 91.44626953 81.39501953 92.28564453 C81.94416016 93.14158203 82.49330078 93.99751953 83.05908203 94.87939453 C84.68741169 97.26662897 86.31988918 99.65087569 87.95751953 102.03173828 C89.05908203 103.87939453 89.05908203 103.87939453 89.05908203 105.87939453 C89.71908203 105.87939453 90.37908203 105.87939453 91.05908203 105.87939453 C92.78564453 108.43408203 92.78564453 108.43408203 94.68408203 111.75439453 C95.31572266 112.84494141 95.94736328 113.93548828 96.59814453 115.05908203 C98.05908203 117.87939453 98.05908203 117.87939453 98.05908203 119.87939453 C98.71908203 119.87939453 99.37908203 119.87939453 100.05908203 119.87939453 C106.68153416 131.74706316 113.07750142 143.6764372 119.05908203 155.87939453 C119.38980713 156.52706787 119.72053223 157.17474121 120.0612793 157.84204102 C122.3319102 162.29441692 124.31549036 166.7830543 126.12158203 171.44189453 C127.55608687 175.1061602 129.0006926 178.74941203 130.61376953 182.34033203 C132.1785923 186.1720332 133.19187718 189.9208254 134.12158203 193.94189453 C135.01668326 197.74158128 135.92862558 201.49077164 137.17236328 205.19580078 C138.075472 207.92899765 138.22708778 210.02329682 138.05908203 212.87939453 C138.71908203 212.87939453 139.37908203 212.87939453 140.05908203 212.87939453 C140.16978027 213.61988037 140.28047852 214.36036621 140.39453125 215.12329102 C140.90445853 218.52165655 141.41923526 221.91927096 141.93408203 225.31689453 C142.10810547 226.4815625 142.28212891 227.64623047 142.46142578 228.84619141 C142.63544922 229.99023438 142.80947266 231.13427734 142.98876953 232.31298828 C143.14587402 233.35511475 143.30297852 234.39724121 143.46484375 235.47094727 C143.92368949 238.10280652 144.4759582 240.63471497 145.1027832 243.2265625 C146.13771662 247.81270081 146.39650325 252.20108826 146.43017578 256.89111328 C146.44115295 257.73008148 146.45213013 258.56904968 146.46343994 259.43344116 C146.49009224 262.14476631 146.49643262 264.85544432 146.49658203 267.56689453 C146.49864655 268.4934787 146.50071106 269.42006287 146.50283813 270.37472534 C146.49490873 290.26617192 144.86285929 310.02435199 138.05908203 328.87939453 C133.58446705 326.70988424 131.02037528 323.6559215 127.88720703 319.93017578 C125.67643498 317.45014303 123.24247808 315.42023859 120.68408203 313.31298828 C118.1512819 311.07852278 116.18194486 308.50504067 114.05908203 305.87939453 C111.20502916 302.87106853 108.20612664 300.13430042 105.05908203 297.44189453 C102.60152771 295.32092832 100.40015662 293.22601295 98.37158203 290.69189453 C96.19406767 287.84633226 96.19406767 287.84633226 93.55908203 285.87939453 C91.15798771 283.95851907 89.41550432 281.90409915 87.50439453 279.51220703 C85.84091268 277.63292213 84.03546186 276.06468998 82.12158203 274.44189453 C78.90260869 271.70516439 76.23812853 268.82496868 73.55908203 265.57080078 C71.47525957 263.22107389 69.12637495 261.27784084 66.71533203 259.27392578 C63.20478765 256.31811365 60.16668034 253.0289218 57.24658203 249.50439453 C54.44067847 246.17193323 51.31192914 243.44241632 47.99658203 240.62939453 C45.61394675 238.47733686 43.65523567 236.10514679 41.62158203 233.62939453 C39.30404115 231.03374874 36.65003272 228.88063734 34.00048828 226.63330078 C31.59693078 224.4618776 29.61362665 222.06640253 27.55908203 219.57080078 C25.47525957 217.22107389 23.12637495 215.27784084 20.71533203 213.27392578 C17.12015621 210.24685557 14.03882428 206.87102826 11.05908203 203.25439453 C8.6628996 200.40120824 6.33288538 198.69817417 3.05908203 196.87939453 C2.39908203 195.88939453 1.73908203 194.89939453 1.05908203 193.87939453 C-3.22433804 194.35533009 -5.09665185 196.82701138 -7.94091797 199.87939453 C-9.60339571 201.55023962 -11.27059201 203.2163952 -12.94091797 204.87939453 C-13.78300969 205.72148625 -14.62510141 206.56357798 -15.49271107 207.43118763 C-76.21681452 268.15529108 -76.21681452 268.15529108 -136.94091797 328.87939453 C-137.60091797 328.54939453 -138.26091797 328.21939453 -138.94091797 327.87939453 C-140.97922252 321.69621231 -142.04056097 315.31051592 -142.94091797 308.87939453 C-143.27091797 307.93064453 -143.60091797 306.98189453 -143.94091797 306.00439453 C-146.33319381 298.52853251 -146.10006616 290.55313673 -146.10888672 282.77392578 C-146.11221512 281.73225754 -146.11554352 280.69058929 -146.11897278 279.61735535 C-146.12401051 277.42304929 -146.12638209 275.22873566 -146.1262207 273.03442383 C-146.12840019 269.71894352 -146.14657082 266.40380022 -146.16552734 263.08837891 C-146.2062921 247.90382822 -145.42800456 233.52011706 -140.94091797 218.87939453 C-140.61091797 218.54939453 -140.28091797 218.21939453 -139.94091797 217.87939453 C-139.46883452 215.65729474 -139.03943744 213.42609534 -138.62841797 211.19189453 C-135.53277672 195.14197939 -130.8109306 178.6567086 -123.10498047 164.16455078 C-121.41063602 160.8384048 -120.08120389 157.39029905 -118.73779297 153.91064453 C-117.94091797 151.87939453 -117.94091797 151.87939453 -116.94091797 149.87939453 C-116.28091797 149.87939453 -115.62091797 149.87939453 -114.94091797 149.87939453 C-114.84037109 149.35474609 -114.73982422 148.83009766 -114.63623047 148.28955078 C-112.34614428 138.86255216 -106.9991815 131.02773942 -101.94091797 122.87939453 C-101.47572754 122.1259375 -101.01053711 121.37248047 -100.53125 120.59619141 C-93.49529389 109.21095842 -93.49529389 109.21095842 -89.94091797 103.87939453 C-89.28091797 103.87939453 -88.62091797 103.87939453 -87.94091797 103.87939453 C-87.65216797 102.91001953 -87.36341797 101.94064453 -87.06591797 100.94189453 C-85.94091797 97.87939453 -85.94091797 97.87939453 -83.94091797 96.87939453 C-83.01204912 95.26247469 -82.08757829 93.64289891 -81.18310547 92.01220703 C-73.93113183 79.56070513 -64.14403328 68.35761727 -54.79882812 57.44067383 C-52.1308352 54.31675806 -49.55907073 51.14423743 -47.06591797 47.87939453 C-44.57046456 44.61565117 -41.88928645 41.74807738 -38.94091797 38.87939453 C-38.28091797 38.05439453 -37.62091797 37.22939453 -36.94091797 36.37939453 C-34.76814016 33.66342227 -32.42912419 31.31105061 -29.94091797 28.87939453 C-26.07404724 25.09410336 -22.26030921 21.31662517 -18.75341797 17.19189453 C-15.36763712 13.28884161 -11.84395121 9.53105018 -8.25341797 5.81689453 C-7.69436768 5.21981689 -7.13531738 4.62273926 -6.55932617 4.00756836 C-2.48068742 -0.15414586 -2.48068742 -0.15414586 0 0 Z " fill="#1B1B1B" transform="translate(511.94091796875,180.12060546875)"/>
<path d="M0 0 C0.85039352 -0.00095673 1.70078705 -0.00191345 2.57695007 -0.00289917 C4.38341343 -0.00358026 6.18987923 -0.00173092 7.99633789 0.00244141 C10.71311224 0.00771809 13.42971568 0.00253218 16.14648438 -0.00390625 C36.51658169 -0.01278812 36.51658169 -0.01278812 45.44921875 1.1328125 C45.77921875 1.4628125 46.10921875 1.7928125 46.44921875 2.1328125 C48.21315001 2.41881494 49.98640911 2.64778182 51.76171875 2.8515625 C52.83679688 2.97917969 53.911875 3.10679687 55.01953125 3.23828125 C56.15132812 3.36847656 57.283125 3.49867188 58.44921875 3.6328125 C60.67884146 3.8892953 62.90803948 4.14950705 65.13671875 4.4140625 C66.62751953 4.58518555 66.62751953 4.58518555 68.1484375 4.75976562 C70.44921875 5.1328125 70.44921875 5.1328125 71.44921875 6.1328125 C71.71760316 11.56229673 71.64154372 17.00951554 71.63671875 22.4453125 C71.6378064 23.66859756 71.6378064 23.66859756 71.63891602 24.91659546 C71.63714708 43.03162592 70.66993165 61.06398901 69.44921875 79.1328125 C68.78921875 79.1328125 68.12921875 79.1328125 67.44921875 79.1328125 C67.47757813 80.31875 67.5059375 81.5046875 67.53515625 82.7265625 C67.53254426 89.40281893 66.77593231 96.00026992 66.07421875 102.6328125 C65.94789063 103.89996094 65.8215625 105.16710937 65.69140625 106.47265625 C65.06862327 112.45760069 64.34113028 118.28936996 62.91796875 124.13818359 C62.29420712 126.79241927 61.88401473 129.46433472 61.4609375 132.15649414 C59.76180486 142.84132597 56.87012997 152.94672656 52.9296875 163.03515625 C51.30654707 167.31864567 50.25613261 171.6676234 49.26171875 176.1328125 C49.08447266 176.90753906 48.90722656 177.68226563 48.72460938 178.48046875 C48.29454285 180.36346271 47.87116375 182.24798204 47.44921875 184.1328125 C46.78921875 184.1328125 46.12921875 184.1328125 45.44921875 184.1328125 C45.31966797 185.22335937 45.31966797 185.22335937 45.1875 186.3359375 C44.08563877 194.22081601 41.79724704 200.92560657 38.44921875 208.1328125 C37.78921875 208.1328125 37.12921875 208.1328125 36.44921875 208.1328125 C36.28421875 209.2878125 36.11921875 210.4428125 35.94921875 211.6328125 C34.28667778 219.32976143 30.08545644 226.21996503 26.44921875 233.1328125 C26.11921875 233.7928125 25.78921875 234.4528125 25.44921875 235.1328125 C24.78921875 235.1328125 24.12921875 235.1328125 23.44921875 235.1328125 C23.30226563 236.19048828 23.30226563 236.19048828 23.15234375 237.26953125 C22.3327796 240.60697861 20.97213009 243.00459217 19.19921875 245.9453125 C18.56113281 247.00621094 17.92304687 248.06710937 17.265625 249.16015625 C16.66621094 250.14113281 16.06679688 251.12210938 15.44921875 252.1328125 C14.84400391 253.15568359 14.84400391 253.15568359 14.2265625 254.19921875 C7.86295744 264.75960994 0.25072878 274.60948483 -7.55078125 284.1328125 C-8.29328125 285.07253906 -9.03578125 286.01226563 -9.80078125 286.98046875 C-13.5803723 291.7241109 -17.26883438 296.06831502 -22 299.875 C-24.93397103 302.25469438 -27.5113145 305.01928705 -30.0859375 307.77734375 C-31.52043443 309.28233193 -33.03192265 310.7130099 -34.55078125 312.1328125 C-37.55078125 312.1328125 -37.55078125 312.1328125 -39.67578125 310.1953125 C-40.63487098 309.17518978 -41.59306223 308.15422219 -42.55078125 307.1328125 C-44.04669593 305.62873828 -45.54703906 304.12906095 -47.05078125 302.6328125 C-48.55078125 301.1328125 -50.05078125 299.6328125 -51.55078125 298.1328125 C-52.68618599 296.99789871 -52.68618599 296.99789871 -53.8445282 295.84005737 C-56.60935473 293.07421755 -59.37114948 290.30537168 -62.13208008 287.53564453 C-67.56967246 282.0816981 -73.00981996 276.63030779 -78.45142078 271.18036079 C-81.73432736 267.89223693 -85.01629181 264.60318393 -88.29614258 261.31201172 C-91.48329381 258.1139351 -94.6729359 254.91836183 -97.86426353 251.72445297 C-99.07266697 250.51421553 -100.28019663 249.30310493 -101.48679543 248.09106827 C-109.96268589 239.56216763 -109.96268589 239.56216763 -118.94145203 231.56954956 C-121.26262315 229.49731193 -123.20412387 227.16670443 -125.16015625 224.75390625 C-126.70553741 222.87370682 -126.70553741 222.87370682 -129.48828125 220.5703125 C-130.16890625 219.7659375 -130.84953125 218.9615625 -131.55078125 218.1328125 C-131.23828125 215.359375 -131.23828125 215.359375 -130.55078125 212.1328125 C-130.39738281 211.13121094 -130.24398437 210.12960937 -130.0859375 209.09765625 C-129.92996094 208.09863281 -129.77398438 207.09960938 -129.61328125 206.0703125 C-129.45988281 205.06871094 -129.30648437 204.06710937 -129.1484375 203.03515625 C-128.56219287 200.18822972 -127.66602923 197.80940765 -126.55078125 195.1328125 C-122.68020212 183.3643715 -121.56977086 171.3469315 -120.50219727 159.07836914 C-120.33482056 157.17365845 -120.33482056 157.17365845 -120.1640625 155.23046875 C-120.06907471 154.08070557 -119.97408691 152.93094238 -119.8762207 151.74633789 C-119.55078125 149.1328125 -119.55078125 149.1328125 -118.55078125 148.1328125 C-118.43643087 146.57909378 -118.39117943 145.02022618 -118.3737793 143.46240234 C-118.36111526 142.46039291 -118.34845123 141.45838348 -118.33540344 140.42601013 C-118.32784531 139.32636429 -118.32028717 138.22671844 -118.3125 137.09375 C-118.30288742 135.95692276 -118.29327484 134.82009552 -118.28337097 133.64881897 C-118.25846397 129.9351203 -118.24607785 126.22158527 -118.23828125 122.5078125 C-118.23335663 120.63018723 -118.23335663 120.63018723 -118.22833252 118.71463013 C-117.96073457 86.9845909 -117.96073457 86.9845909 -124.55078125 56.1328125 C-125.13139249 52.35883946 -125.55649317 48.58262925 -125.98828125 44.7890625 C-126.51617292 41.35776664 -127.37227484 38.38773498 -128.55078125 35.1328125 C-129.30078125 32.1328125 -129.30078125 32.1328125 -128.55078125 29.1328125 C-121.75004998 22.87676222 -109.69156548 19.1328125 -100.55078125 19.1328125 C-100.55078125 18.4728125 -100.55078125 17.8128125 -100.55078125 17.1328125 C-97.58078125 16.8028125 -94.61078125 16.4728125 -91.55078125 16.1328125 C-91.55078125 15.4728125 -91.55078125 14.8128125 -91.55078125 14.1328125 C-89.96848065 13.79461084 -88.3848875 13.46245311 -86.80078125 13.1328125 C-85.9190625 12.9471875 -85.03734375 12.7615625 -84.12890625 12.5703125 C-81.55078125 12.1328125 -81.55078125 12.1328125 -77.55078125 12.1328125 C-77.55078125 11.4728125 -77.55078125 10.8128125 -77.55078125 10.1328125 C-76.96176025 10.02211426 -76.37273926 9.91141602 -75.76586914 9.79736328 C-73.04805251 9.28569284 -70.33066726 8.77176478 -67.61328125 8.2578125 C-66.68708984 8.08378906 -65.76089844 7.90976562 -64.80664062 7.73046875 C-63.88818359 7.55644531 -62.96972656 7.38242187 -62.0234375 7.203125 C-61.19078369 7.04602051 -60.35812988 6.88891602 -59.50024414 6.72705078 C-57.83178411 6.39090049 -56.16549515 6.04154795 -54.50933838 5.64924622 C-49.29913563 4.42211395 -44.23753863 3.69679915 -38.90234375 3.31640625 C-38.12313568 3.25501968 -37.34392761 3.19363312 -36.54110718 3.13038635 C-34.08642063 2.93765081 -31.63121233 2.75329747 -29.17578125 2.5703125 C-26.69902149 2.38281047 -24.22245376 2.19341333 -21.7461853 1.99952698 C-20.21395608 1.87981627 -18.68142582 1.76388294 -17.14859009 1.65220642 C-11.28316077 1.19812493 -5.94110924 -0.01474612 0 0 Z " fill="#1B1B1B" transform="translate(815.55078125,325.8671875)"/>
<path d="M0 0 C0 0.66 0 1.32 0 2 C0.90492188 1.94328125 1.80984375 1.8865625 2.7421875 1.828125 C8.36299106 1.83377121 13.70457453 3.39529718 19.125 4.75 C20.24068359 5.02368408 21.35636719 5.29736816 22.50585938 5.5793457 C32.42403076 8.04224246 42.09874202 10.97577879 51.76171875 14.296875 C54.29654455 15.09315536 56.85449318 15.69113332 59.4375 16.3125 C65.28738506 17.84933421 70.00550058 20.65227696 75 24 C74.11879966 33.91350381 72.90926825 43.51583332 70.40917969 53.16381836 C69.21956985 57.78530359 68.51129005 62.26661375 68 67 C67.34 67 66.68 67 66 67 C64.82670775 92.66576802 64.89380228 118.31322161 65 144 C65.66 144 66.32 144 67 144 C67.07516846 144.87624023 67.15033691 145.75248047 67.2277832 146.65527344 C67.51648752 149.96609879 67.81392606 153.27591456 68.11694336 156.58544922 C68.24534604 158.00669539 68.37045272 159.42824396 68.49194336 160.85009766 C69.26035913 169.81178612 70.59630368 178.30849978 73 187 C73.55962374 189.41025789 74.06004712 191.82674153 74.5625 194.25 C75.35809648 198.04792637 76.18507982 201.81401325 77.1875 205.5625 C77.92043948 208.6633978 78.33647548 210.85860267 78 214 C76.55723953 215.71349335 76.55723953 215.71349335 74.54620361 217.26843262 C69.80060738 221.13269478 65.55350092 225.34840944 61.26074219 229.70507812 C60.42719208 230.54651367 59.59364197 231.38794922 58.73483276 232.25488281 C56.93872777 234.06808923 55.14367239 235.88233587 53.34957123 237.69752502 C50.51204733 240.56646325 47.66983448 243.43066439 44.82550049 246.29284668 C43.84838438 247.27622175 42.87126875 248.2595973 41.89415359 249.24297333 C41.40536429 249.73487876 40.91657498 250.22678419 40.41297388 250.73359585 C33.80259625 257.38688831 27.19699379 264.04482282 20.60546875 270.71679688 C16.1421975 275.23444521 11.67017692 279.74322638 7.18782544 284.2419467 C4.82017513 286.61897977 2.45735201 289.00041243 0.1052475 291.39283752 C-2.5112902 294.05011921 -5.14273919 296.6917032 -7.77832031 299.33007812 C-8.55553436 300.1268396 -9.33274841 300.92360107 -10.1335144 301.74450684 C-10.85106903 302.4566333 -11.56862366 303.16875977 -12.30792236 303.90246582 C-12.92803822 304.52848946 -13.54815407 305.15451309 -14.18706131 305.79950714 C-16 307 -16 307 -18.09428024 306.79589081 C-24.60221903 304.07796303 -29.68376598 297.39529253 -34 292 C-34.845625 291.154375 -35.69125 290.30875 -36.5625 289.4375 C-38.92017117 287.07982883 -40.92766022 284.60713714 -43 282 C-43.61746094 281.3915625 -44.23492187 280.783125 -44.87109375 280.15625 C-47.0954219 277.9033525 -49.03962115 275.54743335 -51 273.0625 C-51.66 272.22847656 -52.32 271.39445312 -53 270.53515625 C-53.66 269.69855469 -54.32 268.86195313 -55 268 C-55.6703125 267.19304687 -56.340625 266.38609375 -57.03125 265.5546875 C-59.12792817 262.83399797 -60.80809243 260.05025496 -62.5 257.0625 C-64.3893471 253.75918991 -66.26785392 250.50206998 -68.4375 247.375 C-70 245 -70 245 -70 243 C-70.66 243 -71.32 243 -72 243 C-73.17407021 240.73272667 -74.33939739 238.46165376 -75.5 236.1875 C-75.83386719 235.54490234 -76.16773438 234.90230469 -76.51171875 234.24023438 C-78.00239084 231.30452301 -79 229.33873483 -79 226 C-79.99 225.67 -80.98 225.34 -82 225 C-82.73828125 223.3203125 -82.73828125 223.3203125 -83.3125 221.125 C-84.46059123 217.28588012 -85.98509202 214.08765668 -88 210.625 C-90.60309319 206.0422705 -92.12006957 201.73900688 -93.26171875 196.60546875 C-94.14204491 193.49870922 -95.53912675 190.87919679 -97 188 C-98.08780238 185.37861966 -99.07792937 182.72411421 -100.0625 180.0625 C-100.44631836 179.04639648 -100.44631836 179.04639648 -100.83789062 178.00976562 C-103.20803454 171.65485535 -104.99854946 165.2834242 -106.3125 158.625 C-107.41699008 153.32010068 -108.81587655 148.22873943 -110.4375 143.0625 C-113.39669018 133.48688122 -114.9854807 123.70578208 -116.54467773 113.82104492 C-116.85318662 111.90961318 -117.17876647 110.00087258 -117.51977539 108.0949707 C-118.8355405 100.68122242 -119.55062649 93.32146185 -120.0625 85.8125 C-120.21593767 83.58955593 -120.37326362 81.36687556 -120.53515625 79.14453125 C-120.63389038 77.69590698 -120.63389038 77.69590698 -120.73461914 76.21801758 C-120.76474129 74.0292272 -120.76474129 74.0292272 -122 73 C-122.95626951 66.83029081 -123.3110025 60.67122963 -123.5625 54.4375 C-123.6049585 53.39988525 -123.64741699 52.36227051 -123.69116211 51.29321289 C-124.28589121 34.53908372 -124.08355773 17.76168005 -124 1 C-123.04287109 0.90912109 -123.04287109 0.90912109 -122.06640625 0.81640625 C-120.82697266 0.69072266 -120.82697266 0.69072266 -119.5625 0.5625 C-118.73878906 0.48128906 -117.91507813 0.40007812 -117.06640625 0.31640625 C-115.01337975 0.21069185 -115.01337975 0.21069185 -114 -1 C-77.58576069 -8.07585792 -36.39671445 -5.5357511 0 0 Z " fill="#1B1B1B" transform="translate(261,331)"/>
<path d="M0 0 C0.98750659 2.68468917 1.96512355 5.37233265 2.9375 8.0625 C3.21529297 8.81466797 3.49308594 9.56683594 3.77929688 10.34179688 C5.42412588 14.91957398 6.4921843 19.15968073 7 24 C7.66 24 8.32 24 9 24 C9.20753906 24.63164063 9.41507813 25.26328125 9.62890625 25.9140625 C12.40518985 33.97573957 16.10828592 41.43653828 20 49 C21.04392276 51.10304828 22.08571963 53.20715368 23.125 55.3125 C25.31692231 59.71402141 27.64263428 64.00905131 30.1171875 68.2578125 C31 70 31 70 31 72 C31.66 72 32.32 72 33 72 C35.3208055 75.2491277 36.43697042 78.05879291 37 82 C37.66 82 38.32 82 39 82 C39 82.66 39 83.32 39 84 C39.66 84 40.32 84 41 84 C42.165644 85.8170333 43.320958 87.64145051 44.42578125 89.49609375 C46.87115871 93.38563953 49.66236466 97.01215865 52.42578125 100.6796875 C54 103 54 103 54 105 C54.66 105 55.32 105 56 105 C57.41438406 106.57286684 58.75604401 108.21139996 60.0625 109.875 C63.87497397 114.64365715 67.82937605 119.21506495 71.9453125 123.72265625 C73.70565798 125.6737616 75.39184323 127.66013544 77.0625 129.6875 C80.34206858 133.54848794 84.12009942 136.7590513 88 140 C88.6084375 140.51175781 89.216875 141.02351562 89.84375 141.55078125 C91.22414924 142.70654005 92.61125376 143.85428435 94 145 C93.41462469 148.48114098 92.23386838 150.14815548 89.76911926 152.63874817 C89.07804077 153.34406677 88.38696228 154.04938538 87.67494202 154.77607727 C86.91185226 155.53937851 86.14876251 156.30267975 85.36254883 157.08911133 C84.5624942 157.90084808 83.76243958 158.71258484 82.93814087 159.54891968 C80.28589814 162.23481077 77.62230985 164.90907925 74.95703125 167.58203125 C73.11179928 169.43943702 71.2667238 171.29699827 69.42179871 173.15470886 C65.55159005 177.04867367 61.67371556 180.9349001 57.79272461 184.81811523 C53.30631489 189.30756239 48.8389712 193.81538812 44.37995702 198.33203107 C40.08900415 202.67647661 35.77894155 207.00147854 31.4614315 211.31952477 C29.6268536 213.15950185 27.79803992 215.0052445 25.97507668 216.85672951 C23.42773292 219.44058778 20.85934999 222.00153062 18.28442383 224.55786133 C17.53145523 225.33128372 16.77848663 226.10470612 16.00270081 226.90156555 C10.81343842 231.98811282 10.81343842 231.98811282 6.65556335 232.0488739 C3.79663898 230.91967803 1.24577953 229.6719577 -1.375 228.0625 C-2.24898438 227.53785156 -3.12296875 227.01320313 -4.0234375 226.47265625 C-4.67570312 225.98667969 -5.32796875 225.50070312 -6 225 C-6 224.34 -6 223.68 -6 223 C-6.85464844 222.77183594 -7.70929688 222.54367187 -8.58984375 222.30859375 C-12.4868247 220.81318869 -15.37462888 218.67882781 -18.5625 216.0625 C-19.16892334 215.57450928 -19.77534668 215.08651855 -20.40014648 214.58374023 C-22.27599968 213.06674591 -24.13956458 211.53584882 -26 210 C-26.56203125 209.53851562 -27.1240625 209.07703125 -27.703125 208.6015625 C-41.08469396 197.57769855 -54.25516249 186.03475701 -65.05859375 172.40234375 C-66.93080817 169.99522257 -66.93080817 169.99522257 -69.01171875 168.0078125 C-71.22082184 165.77700898 -72.9856205 163.42742227 -74.8125 160.875 C-75.50601563 159.90820312 -76.19953125 158.94140625 -76.9140625 157.9453125 C-79.42142806 154.4049499 -81.91913856 150.85848474 -84.390625 147.29296875 C-85.86950412 145.18592496 -87.39797491 143.12529064 -88.9375 141.0625 C-91 138 -91 138 -91 135 C-91.66 135 -92.32 135 -93 135 C-96 129.25 -96 129.25 -96 127 C-96.66 127 -97.32 127 -98 127 C-99.485 122.545 -99.485 122.545 -101 118 C-101.66 118 -102.32 118 -103 118 C-103.515625 116.824375 -104.03125 115.64875 -104.5625 114.4375 C-106.15684039 110.83044621 -107.8277548 107.26725885 -109.53198242 103.7109375 C-112.75351913 96.95691499 -115.48289018 90.22544451 -117.859375 83.12109375 C-118.94172403 79.92637867 -118.94172403 79.92637867 -120.703125 76.84765625 C-122 74 -122 74 -121.74780273 71.98632812 C-120.47481122 68.60498338 -117.53585148 66.6699158 -114.8125 64.4375 C-114.18609619 63.91373779 -113.55969238 63.38997559 -112.91430664 62.8503418 C-110.95337074 61.22027247 -108.97951813 59.60743566 -107 58 C-106.09749512 57.26475098 -106.09749512 57.26475098 -105.17675781 56.51464844 C-79.07467831 35.3582261 -79.07467831 35.3582261 -69 32 C-67.98901199 31.01111009 -66.99009973 30.00980321 -66 29 C-51.42287482 19.01981056 -33.25131216 9.21962221 -16.1484375 4.6171875 C-14.04723179 4.0135684 -12.12207474 3.25977995 -10.125 2.375 C-6.49306666 0.77694933 -3.94727312 0 0 0 Z " fill="#1C1C1C" transform="translate(122,519)"/>
<path d="M0 0 C9.02260577 0.32223592 16.72410981 3.68083979 25 7 C25.98484375 7.39316406 26.9696875 7.78632812 27.984375 8.19140625 C28.64953125 8.45824219 29.3146875 8.72507812 30 9 C30 9.66 30 10.32 30 11 C30.81726563 11.24492188 31.63453125 11.48984375 32.4765625 11.7421875 C36.63161324 13.22547612 40.45321289 15.11800949 44.375 17.125 C45.11105469 17.49753906 45.84710937 17.87007812 46.60546875 18.25390625 C48.40550358 19.1656122 50.20301402 20.08229932 52 21 C52 21.66 52 22.32 52 23 C54.97 23.99 57.94 24.98 61 26 C61 26.66 61 27.32 61 28 C62.2065625 28.309375 62.2065625 28.309375 63.4375 28.625 C68.12228969 30.43316444 71.9044385 33.13087706 76 36 C80.56005895 39.10472099 85.23130196 41.90454655 90.0234375 44.6328125 C90.67570313 45.08398438 91.32796875 45.53515625 92 46 C92 46.66 92 47.32 92 48 C92.54914063 48.23976563 93.09828125 48.47953125 93.6640625 48.7265625 C96.55085379 50.30029822 98.86189325 52.25610608 101.375 54.375 C105.72645855 58.01469909 105.72645855 58.01469909 110.375 61.25 C113.3079724 63.20531493 115.54485728 65.48024826 118 68 C119.31175986 69.02813611 120.6369893 70.04084432 122 71 C121.34 73.97 120.68 76.94 120 80 C119.34 80 118.68 80 118 80 C117.9175 80.969375 117.835 81.93875 117.75 82.9375 C116.77861096 89.79273121 113.05794347 95.88411306 110 102 C109.55140625 103.06734375 109.1028125 104.1346875 108.640625 105.234375 C107.05103351 108.96408276 105.22892174 112.55385376 103.3125 116.125 C102.96872314 116.76880615 102.62494629 117.4126123 102.27075195 118.07592773 C99.31107869 123.55384286 96.09670936 128.84149458 92.76171875 134.09765625 C91.00165634 136.99727127 89.47445008 139.94675414 88 143 C87.34 143 86.68 143 86 143 C85.63648438 143.79857422 85.63648438 143.79857422 85.265625 144.61328125 C76.44979415 161.23819684 62.26127554 175.99149845 49.125 189.1875 C48.24545654 190.07252197 47.36591309 190.95754395 46.4597168 191.86938477 C42.07757218 196.20336939 37.6789092 200.16783834 32.66967773 203.75976562 C30.57172504 205.31812207 28.82213212 207.13144414 27 209 C18.97414077 215.40843416 10.49653554 221.23925994 2 227 C1.20078125 227.56460938 0.4015625 228.12921875 -0.421875 228.7109375 C-5.32750045 232.04897587 -5.32750045 232.04897587 -8.48744678 231.81884766 C-11.32620647 230.89368846 -12.6092615 229.88248154 -14.70085144 227.7734375 C-15.39479507 227.08354736 -16.08873871 226.39365723 -16.80371094 225.68286133 C-17.54935303 224.92126709 -18.29499512 224.15967285 -19.06323242 223.375 C-19.86054276 222.57666748 -20.65785309 221.77833496 -21.47932434 220.95581055 C-24.11415465 218.31309162 -26.73464474 215.6566036 -29.35546875 213 C-31.18104584 211.16442352 -33.00758177 209.32980018 -34.83503723 207.49609375 C-39.15340386 203.15891872 -43.46310473 198.81331136 -47.76838428 194.46315002 C-55.94051385 186.20674149 -64.13417075 177.97170366 -72.32601357 169.73486328 C-75.02023447 167.02288413 -77.71022693 164.30676819 -80.39945984 161.58984375 C-82.04124202 159.93484795 -83.68306994 158.27989753 -85.32495117 156.625 C-86.07666595 155.86340576 -86.82838074 155.10181152 -87.60287476 154.31713867 C-88.28835892 153.62724854 -88.97384308 152.9373584 -89.68009949 152.2265625 C-90.27645801 151.62408691 -90.87281652 151.02161133 -91.48724651 150.40087891 C-92.96608999 148.90045701 -92.96608999 148.90045701 -95 148 C-95 147.01 -95 146.02 -95 145 C-92.9453125 143.08984375 -92.9453125 143.08984375 -90.125 140.9375 C-78.86925427 132.02549567 -69.62919446 121.45159374 -60.796875 110.19921875 C-59 108 -59 108 -57.390625 106.39453125 C-55.75774962 104.84759348 -55.75774962 104.84759348 -54 102 C-53.34 102 -52.68 102 -52 102 C-51.74347656 101.27683594 -51.48695313 100.55367187 -51.22265625 99.80859375 C-49.93167508 96.84304914 -48.3965948 94.63109096 -46.4375 92.0625 C-39.59010218 82.83718766 -33.35489781 73.17161494 -28 63 C-27.34 63 -26.68 63 -26 63 C-25.84144531 62.46632813 -25.68289063 61.93265625 -25.51953125 61.3828125 C-23.59946085 55.25131697 -20.99765643 49.67540486 -18 44 C-17.34 44 -16.68 44 -16 44 C-15.62875 42.2984375 -15.62875 42.2984375 -15.25 40.5625 C-14.06800998 35.77458392 -12.11689209 31.43930767 -10 27 C-9.34 27 -8.68 27 -8 27 C-7.79375 25.700625 -7.5875 24.40125 -7.375 23.0625 C-5.81502441 15.11350672 -2.79623483 7.5797309 0 0 Z " fill="#1B1B1B" transform="translate(902,519)"/>
<path d="M0 0 C4.69511014 2.17845153 7.72653069 5.34448989 10.875 9.4375 C13.13383229 12.16138599 15.56819022 14.27310905 18.2734375 16.53515625 C21.82100421 19.54496964 24.90842441 22.86821644 27.875 26.4375 C30.46144363 29.50266842 33.26460479 32.04626692 36.34375 34.60546875 C39.85429438 37.56128088 42.89240169 40.85047273 45.8125 44.375 C47.88426547 46.82341877 50.0118683 48.94160287 52.46875 51 C58.15820615 55.91803763 63.39594615 61.28875255 68.6875 66.625 C69.71655953 67.65909041 70.74585507 68.69294602 71.77539062 69.7265625 C73.66772395 71.62697857 75.5584121 73.528976 77.44799805 75.43212891 C82.61952722 80.66420978 82.61952722 80.66420978 87.9296875 85.75390625 C88.91151887 86.69004068 89.89328938 87.62623894 90.875 88.5625 C91.38546875 89.03107422 91.8959375 89.49964844 92.421875 89.98242188 C93.8671875 91.37890625 93.8671875 91.37890625 96 94 C95.97050682 97.19116244 94.36045107 99.16236512 92.4375 101.625 C91.89609375 102.32109375 91.3546875 103.0171875 90.796875 103.734375 C90.20390625 104.48203125 89.6109375 105.2296875 89 106 C88.07960938 107.18335938 88.07960938 107.18335938 87.140625 108.390625 C82.34021684 114.49674418 77.23481362 120.26578338 72 126 C70.45786365 127.7287478 68.91619238 129.45791059 67.375 131.1875 C64.20278071 134.71894273 60.93339184 138.10127756 57.54296875 141.421875 C55.78157881 143.17515337 55.78157881 143.17515337 53.5625 146 C51.01999534 148.97659082 48.37365359 151.38149964 45.40234375 153.91015625 C43.10426808 155.90929525 40.87951598 157.97350628 38.66162109 160.06079102 C31.05851837 167.20074291 23.07799603 173.82448578 14.97998047 180.39306641 C12.12443787 182.71059802 9.28155463 185.04338765 6.4375 187.375 C4.95857599 188.58363032 3.47951942 189.79209862 2 191 C-3.33646284 189.42736851 -7.031313 185.9044531 -11.1875 182.375 C-12.70653117 181.10226749 -14.22606018 179.83012892 -15.74609375 178.55859375 C-16.47683105 177.94483887 -17.20756836 177.33108398 -17.96044922 176.69873047 C-20.52234603 174.56494091 -23.12850323 172.49752989 -25.75 170.4375 C-29.06150238 167.80843561 -32.04838126 165.03360815 -35 162 C-35.99 161.195625 -36.98 160.39125 -38 159.5625 C-40.54970659 157.38462562 -42.51311391 155.20859313 -44.58984375 152.59765625 C-46.23907601 150.72913549 -48.03722665 149.17430681 -49.9375 147.5625 C-53.16405866 144.81932091 -55.83414517 141.93331919 -58.515625 138.66796875 C-60.00890726 136.98999105 -61.56091237 135.65207358 -63.3125 134.25 C-67.69677922 130.599611 -71.05331274 126.21016116 -74.58837891 121.75732422 C-76.20950737 119.7391847 -77.85832026 117.74569114 -79.51171875 115.75390625 C-80.12845459 115.01052002 -80.74519043 114.26713379 -81.38061523 113.5012207 C-82.59901936 112.03394835 -83.81852971 110.56759368 -85.03930664 109.10229492 C-88.55455677 104.85327175 -91.84843258 100.52593517 -95 96 C-93.62140072 92.80636047 -92.11891172 91.00638231 -89.4375 88.8125 C-84.68856604 84.7974922 -80.35897753 80.42940984 -76 76 C-74.33416802 74.33249907 -72.66731915 72.66601393 -71 71 C-69.90105007 69.90114516 -68.8021511 68.80223936 -67.70329285 67.70329285 C-45.13552856 45.13552856 -22.56776428 22.56776428 0 0 Z " fill="#1B1B1B" transform="translate(511,499)"/>
<path d="M0 0 C1.49874878 1.4210968 1.49874878 1.4210968 3.10888672 3.4152832 C7.23521285 8.33529973 11.70523863 12.83144072 16.2578125 17.35546875 C17.1238913 18.2201326 17.98997009 19.08479645 18.8822937 19.97566223 C21.6275039 22.71531833 24.37617997 25.45146631 27.125 28.1875 C28.97809683 30.03557445 30.8309636 31.88387961 32.68359375 33.73242188 C36.80709506 37.84603944 40.93275529 41.9574761 45.06072998 46.06660461 C46.66584442 47.66685668 48.26633378 49.27148282 49.86474609 50.87841797 C51.59582029 52.59840823 53.34375943 54.26960183 55.15625 55.90234375 C55.70410156 56.40056641 56.25195312 56.89878906 56.81640625 57.41210938 C57.93686048 58.42727731 59.05925372 59.44030932 60.18359375 60.45117188 C63.79829663 63.74693038 66.94603933 67.17685147 70 71 C66.42129011 73.38580659 64.07128147 73.56220879 59.8125 74.0625 C58.54019531 74.21847656 57.26789063 74.37445312 55.95703125 74.53515625 C41.85285226 75.95134211 27.788203 76.20389593 13.625 76.1875 C12.17666275 76.18659363 12.17666275 76.18659363 10.69906616 76.18566895 C-29.24347938 76.11795502 -29.24347938 76.11795502 -48.51171875 70.90234375 C-52.00902923 69.92853753 -52.00902923 69.92853753 -55.703125 69.47265625 C-58.45686154 69.07786701 -60.53228193 68.57440258 -63.0625 67.5 C-66.35252455 66.18527284 -69.46824852 65.44146893 -73 65 C-73 64.34 -73 63.68 -73 63 C-73.85722656 62.81824219 -74.71445312 62.63648438 -75.59765625 62.44921875 C-81.74694689 61.09734538 -87.2951986 59.63298526 -93 57 C-94.43199427 56.50462202 -95.87006162 56.02658887 -97.3125 55.5625 C-106.15310748 52.67171483 -114.23084888 48.97201524 -122.3125 44.375 C-124.03625734 43.40098098 -125.76147327 42.42953784 -127.48828125 41.4609375 C-128.23634033 41.03603027 -128.98439941 40.61112305 -129.75512695 40.17333984 C-132.11725283 38.93871483 -134.51114891 37.94951655 -137 37 C-137 36.34 -137 35.68 -137 35 C-137.928125 34.71125 -138.85625 34.4225 -139.8125 34.125 C-143 33 -143 33 -146 31 C-146 30.34 -146 29.68 -146 29 C-144.36140015 28.970271 -144.36140015 28.970271 -142.68969727 28.93994141 C-138.55001697 28.8625846 -134.4106305 28.77409543 -130.27124023 28.68261719 C-128.49590955 28.64485441 -126.72051593 28.60992109 -124.94506836 28.578125 C-109.07879133 28.29070872 -93.70186617 26.82238815 -78.0625 24.0625 C-77.12599609 23.90587891 -76.18949219 23.74925781 -75.22460938 23.58789062 C-67.40084551 22.22511149 -59.98611517 20.0599025 -52.5 17.4375 C-46.45345186 15.39692425 -40.39194348 14 -34 14 C-34 13.34 -34 12.68 -34 12 C-26.375 10 -26.375 10 -23 10 C-23 9.34 -23 8.68 -23 8 C-19.73256344 6.6582322 -16.46053092 5.32805641 -13.1875 4 C-12.25873047 3.6184375 -11.32996094 3.236875 -10.37304688 2.84375 C-9.0340332 2.30234375 -9.0340332 2.30234375 -7.66796875 1.75 C-6.43469849 1.24726562 -6.43469849 1.24726562 -5.17651367 0.734375 C-3 0 -3 0 0 0 Z " fill="#1D1D1D" transform="translate(731,716)"/>
<path d="M0 0 C2.21308899 0.9650116 2.21308899 0.9650116 4.40058899 2.3400116 C8.43221987 4.66939833 12.74152871 5.74075917 17.21308899 6.9650116 C17.21308899 7.6250116 17.21308899 8.2850116 17.21308899 8.9650116 C17.91433899 9.07458191 18.61558899 9.18415222 19.33808899 9.29704285 C24.5735461 10.17199016 29.3729759 11.23014663 34.28730774 13.23454285 C37.52073015 14.46101342 40.84783739 15.18379247 44.21308899 15.9650116 C44.21308899 16.6250116 44.21308899 17.2850116 44.21308899 17.9650116 C44.79687317 18.04018005 45.38065735 18.11534851 45.98213196 18.1927948 C48.68530872 18.54583556 51.38662388 18.91161235 54.08808899 19.2775116 C55.46480774 19.45443542 55.46480774 19.45443542 56.86933899 19.63493347 C62.40947505 20.3957268 67.53994352 21.58569553 72.86494446 23.28068542 C76.34466332 24.29478939 79.73744436 24.72698087 83.33808899 25.1525116 C84.64004211 25.31106628 85.94199524 25.46962097 87.28340149 25.63298035 C88.7335968 25.79733582 88.7335968 25.79733582 90.21308899 25.9650116 C90.21308899 26.6250116 90.21308899 27.2850116 90.21308899 27.9650116 C90.92167053 27.95341003 91.63025208 27.94180847 92.36030579 27.92985535 C102.60900023 27.839877 112.79649271 28.391759 123.02558899 28.9650116 C124.79705585 29.0616872 126.56854017 29.15804357 128.34004211 29.2540741 C132.63126746 29.48738005 136.92223472 29.72498166 141.21308899 29.9650116 C138.20130128 33.08209533 135.42401869 35.16780383 131.58808899 37.2150116 C130.14562805 37.99618347 130.14562805 37.99618347 128.67402649 38.7931366 C126.21308899 39.9650116 126.21308899 39.9650116 124.21308899 39.9650116 C123.88308899 40.9550116 123.55308899 41.9450116 123.21308899 42.9650116 C120.88411428 44.10472263 118.6320414 45.054035 116.21308899 45.9650116 C110.67238798 48.11918957 105.22695286 50.38856793 99.83808899 52.9025116 C78.21008266 62.9650116 78.21008266 62.9650116 69.21308899 62.9650116 C69.21308899 63.6250116 69.21308899 64.2850116 69.21308899 64.9650116 C67.00653824 65.47282054 64.79775294 65.97092525 62.58808899 66.4650116 C61.35832336 66.7434491 60.12855774 67.0218866 58.86152649 67.3087616 C55.54156671 67.90592781 52.57400448 68.08910694 49.21308899 67.9650116 C49.21308899 68.6250116 49.21308899 69.2850116 49.21308899 69.9650116 C26.41180913 73.54666369 26.41180913 73.54666369 17.21308899 72.9650116 C17.21308899 73.6250116 17.21308899 74.2850116 17.21308899 74.9650116 C11.05479077 75.86431152 5.06504183 76.12489985 -1.15409851 76.13298035 C-2.13891205 76.13712448 -3.12372559 76.14126862 -4.13838196 76.14553833 C-7.31293005 76.1551682 -10.48735063 76.15520434 -13.66191101 76.1525116 C-14.73916443 76.15257202 -15.81641785 76.15263245 -16.92631531 76.1526947 C-57.84334453 76.11988172 -57.84334453 76.11988172 -72.78691101 71.9650116 C-71.50468662 69.15720031 -70.1650934 67.08844947 -67.99850464 64.89572144 C-67.43081863 64.31661514 -66.86313263 63.73750885 -66.27824402 63.14085388 C-65.65743958 62.51781372 -65.03663513 61.89477356 -64.39701843 61.25285339 C-63.74151505 60.5874202 -63.08601166 59.921987 -62.41064453 59.23638916 C-60.24348637 57.04005156 -58.06863775 54.85154958 -55.89237976 52.66423035 C-54.38263367 51.1429807 -52.87289356 49.62172513 -51.36315918 48.10046387 C-48.19864179 44.91494791 -45.02950082 41.73410606 -41.85795593 38.55558777 C-37.78874665 34.47538145 -33.73843172 30.37694446 -29.69224072 26.27392864 C-26.58221494 23.12672892 -23.45892577 19.99295422 -20.33179665 16.86275673 C-18.83206868 15.35696204 -17.33736047 13.84615088 -15.84775352 12.33034325 C-13.76732804 10.21594273 -11.66894996 8.12114073 -9.56498718 6.03019714 C-8.64288956 5.08045517 -8.64288956 5.08045517 -7.7021637 4.11152649 C-3.46522244 -0.0435043 -3.46522244 -0.0435043 0 0 Z " fill="#1C1C1C" transform="translate(295.7869110107422,716.0349884033203)"/>
<path d="M0 0 C6.44690639 5.31014254 12.29949437 11.17126884 18.18359375 17.0859375 C19.24954109 18.15375345 20.31571205 19.22134622 21.38209534 20.28872681 C24.16750139 23.07792318 26.94988929 25.870111 29.73162842 28.66296387 C32.57901064 31.52063575 35.42927986 34.37542502 38.27929688 37.23046875 C43.85567081 42.81751842 49.42885494 48.40773634 55 54 C51.99956588 57.33096627 48.80707719 58.14161665 44.5625 59.1875 C43.89412109 59.36474609 43.22574219 59.54199219 42.53710938 59.72460938 C39.21568763 60.57718443 36.4551409 61 33 61 C33 61.66 33 62.32 33 63 C32.06800781 63.18175781 31.13601563 63.36351562 30.17578125 63.55078125 C28.90089844 63.80214844 27.62601563 64.05351563 26.3125 64.3125 C25.29833008 64.5122644 25.29833008 64.5122644 24.26367188 64.71606445 C19.81414037 65.60420176 15.4083203 66.60979655 11 67.6875 C6.51056844 68.7503494 2.59755819 69.32075987 -2 69 C-2 69.66 -2 70.32 -2 71 C-10.73952546 72.44796872 -19.13911833 73.29211698 -28 73 C-28 73.66 -28 74.32 -28 75 C-35.71152724 76.05648755 -43.28665821 76.11624053 -51.0625 76.0625 C-52.30966797 76.05798828 -53.55683594 76.05347656 -54.84179688 76.04882812 C-57.89458221 76.03713163 -60.94726498 76.02074086 -64 76 C-62.19725604 72.07899316 -59.9424567 69.92944862 -56.6875 67.0625 C-46.26003911 57.7129733 -36.70720371 47.99106042 -28 37 C-27.02775089 35.86901634 -26.04926877 34.74333794 -25.0625 33.625 C-18.35003563 25.82807063 -12.10008842 17.77021982 -7.15625 8.73046875 C-6.58390625 7.87388672 -6.58390625 7.87388672 -6 7 C-5.34 7 -4.68 7 -4 7 C-3.71125 6.21625 -3.4225 5.4325 -3.125 4.625 C-2 2 -2 2 0 0 Z " fill="#202020" transform="translate(644,631)"/>
<path d="M0 0 C1.70884005 1.62339805 3.37446717 3.29319053 5 5 C5 5.66 5 6.32 5 7 C5.66 7 6.32 7 7 7 C7.24492187 7.49886719 7.48984375 7.99773438 7.7421875 8.51171875 C13.31560257 19.21651942 21.33920594 28.35019418 29.16552734 37.46020508 C31.65916955 40.37153458 34.02116843 43.31950689 36.25 46.4375 C38.57332153 49.62624216 41.1617948 51.96768592 44.21875 54.44140625 C46.16226334 56.14198043 47.77185825 57.96522875 49.4375 59.9375 C53.51704949 64.73372711 58.08389294 68.94905559 63.23828125 72.57421875 C63.81964844 73.04472656 64.40101563 73.51523437 65 74 C65 74.66 65 75.32 65 76 C39.30345317 75.32387339 13.04931892 74.14242101 -12 68 C-12.67732178 67.8342749 -13.35464355 67.6685498 -14.05249023 67.49780273 C-20.34326932 65.93959158 -26.60853598 64.28694302 -32.86035156 62.57958984 C-34.34247124 62.17811197 -35.8263329 61.78303088 -37.31152344 61.39306641 C-39.64963681 60.77744357 -41.98116044 60.14073979 -44.3125 59.5 C-45.04782959 59.31074951 -45.78315918 59.12149902 -46.54077148 58.92651367 C-51.66693187 57.48510186 -51.66693187 57.48510186 -53.48046875 54.84375 C-53.65191406 54.2353125 -53.82335937 53.626875 -54 53 C-52.625 51.5 -52.625 51.5 -51 50 C-50.34 50 -49.68 50 -49 50 C-48.34 48.68 -47.68 47.36 -47 46 C-46.34 46 -45.68 46 -45 46 C-44.74089844 45.401875 -44.48179687 44.80375 -44.21484375 44.1875 C-42.9083696 41.83500635 -41.65883887 40.65903807 -39.5625 39 C-36.93802994 36.8546863 -35.00441676 34.74288609 -33 32 C-32.34 32 -31.68 32 -31 32 C-30.79375 31.443125 -30.5875 30.88625 -30.375 30.3125 C-28.85158284 27.75038933 -27.01772607 26.30666755 -24.69921875 24.4765625 C-22.80142835 22.82744809 -21.24576806 21.04618502 -19.625 19.125 C-16.64745477 15.62161897 -13.43204947 12.69988644 -9.92578125 9.73828125 C-7.42886389 7.48447146 -5.32895785 5.00199777 -3.2265625 2.3828125 C-2 1 -2 1 0 0 Z " fill="#1F1F1F" transform="translate(379,631)"/>
<path d="M0 0 C-10.37357631 4.59225513 -10.37357631 4.59225513 -16 4 C-16.39832031 4.87205078 -16.39832031 4.87205078 -16.8046875 5.76171875 C-20.16106336 12.04669708 -25.79559563 16.8520535 -31.15234375 21.4140625 C-34.58732633 24.36248307 -37.60421578 27.52505894 -40.5 31 C-41.7375 32.485 -41.7375 32.485 -43 34 C-44.11375 35.4540625 -44.11375 35.4540625 -45.25 36.9375 C-48.22298537 39.16723902 -48.73852133 39.31854532 -52.25 39.0625 C-61.85483532 37.32044654 -70.36032691 31.74434982 -78.8671875 27.1953125 C-83.53312432 24.70553277 -88.24892467 22.32300735 -93 20 C-93 19.34 -93 18.68 -93 18 C-93.928125 17.71125 -94.85625 17.4225 -95.8125 17.125 C-99 16 -99 16 -102 14 C-102 13.34 -102 12.68 -102 12 C-100.36140015 11.970271 -100.36140015 11.970271 -98.68969727 11.93994141 C-94.55001697 11.8625846 -90.4106305 11.77409543 -86.27124023 11.68261719 C-84.49590955 11.64485441 -82.72051593 11.60992109 -80.94506836 11.578125 C-65.07879133 11.29070872 -49.70186617 9.82238815 -34.0625 7.0625 C-33.12599609 6.90587891 -32.18949219 6.74925781 -31.22460938 6.58789062 C-22.5083277 5.06964864 -14.27872937 2.56616382 -6.0078125 -0.546875 C-3.67111505 -1.07422306 -2.25036282 -0.74675717 0 0 Z " fill="#212121" transform="translate(687,733)"/>
<path d="M0 0 C9.24 0 18.48 0 28 0 C28 9.24 28 18.48 28 28 C18.76 28 9.52 28 0 28 C0 18.76 0 9.52 0 0 Z " fill="#202020" transform="translate(516,760)"/>
<path d="M0 0 C9.24 0 18.48 0 28 0 C28 9.24 28 18.48 28 28 C18.76 28 9.52 28 0 28 C0 18.76 0 9.52 0 0 Z " fill="#212121" transform="translate(480,760)"/>
<path d="M0 0 C9.24 0 18.48 0 28 0 C28 9.24 28 18.48 28 28 C18.76 28 9.52 28 0 28 C0 18.76 0 9.52 0 0 Z " fill="#212121" transform="translate(516,724)"/>
<path d="M0 0 C9.24 0 18.48 0 28 0 C28 9.24 28 18.48 28 28 C18.76 28 9.52 28 0 28 C0 18.76 0 9.52 0 0 Z " fill="#212121" transform="translate(480,724)"/>
<path d="M0 0 C0.495 1.485 0.495 1.485 1 3 C-20.78 24.78 -42.56 46.56 -65 69 C-61.04 69.99 -57.08 70.98 -53 72 C-53 72.33 -53 72.66 -53 73 C-58.78898419 73.20674944 -63.42932723 72.59162079 -69 71 C-67.72113231 68.19612942 -66.39618952 66.14751465 -64.21591187 63.97540283 C-63.36616539 63.12153236 -63.36616539 63.12153236 -62.49925232 62.25041199 C-61.57028893 61.33223442 -61.57028893 61.33223442 -60.62255859 60.39550781 C-59.96877731 59.74143448 -59.31499603 59.08736115 -58.6414032 58.41346741 C-56.48178862 56.25524486 -54.3151788 54.10419064 -52.1484375 51.953125 C-50.64870384 50.45712191 -49.14941147 48.96067631 -47.65054321 47.46380615 C-43.70610188 43.52699775 -39.75569106 39.59623266 -35.80401611 35.66668701 C-31.77197847 31.65511502 -27.74560286 27.63786906 -23.71875 23.62109375 C-15.81803787 15.74182555 -7.9110091 7.86892875 0 0 Z " fill="#4D4D4D" transform="translate(292,717)"/>
<path d="M0 0 C5.44026366 -0.02502598 10.88049259 -0.0430116 16.32080078 -0.05493164 C18.16520777 -0.05990958 20.00961093 -0.06669434 21.85400391 -0.07543945 C44.8748915 -0.18172818 44.8748915 -0.18172818 54 1 C54.495 1.495 54.495 1.495 55 2 C56.76393126 2.28600244 58.53719036 2.51496932 60.3125 2.71875 C61.38757813 2.84636719 62.46265625 2.97398437 63.5703125 3.10546875 C64.70210937 3.23566406 65.83390625 3.36585938 67 3.5 C69.22962271 3.7564828 71.45882073 4.01669455 73.6875 4.28125 C75.17830078 4.45237305 75.17830078 4.45237305 76.69921875 4.62695312 C79 5 79 5 80 6 C80.26838441 11.42948423 80.19232497 16.87670304 80.1875 22.3125 C80.1882251 23.12802338 80.1889502 23.94354675 80.18969727 24.78378296 C80.18792833 42.89881342 79.2207129 60.93117651 78 79 C77.67 79 77.34 79 77 79 C77 55.24 77 31.48 77 7 C62.65410851 5.38232164 62.65410851 5.38232164 48.30859375 4.24609375 C46 4 46 4 45 3 C39.66527373 2.03498279 34.41549998 1.79734562 29.00390625 1.68359375 C27.75358864 1.6524221 27.75358864 1.6524221 26.47801208 1.62062073 C23.83958439 1.55572144 21.20106509 1.49652022 18.5625 1.4375 C16.76366276 1.39425794 14.96483446 1.35064192 13.16601562 1.30664062 C8.7774354 1.20010201 4.3887639 1.09867025 0 1 C0 0.67 0 0.34 0 0 Z " fill="#828282" transform="translate(807,326)"/>
<path d="M0 0 C11.84376412 -0.07397216 23.66199454 0.15339697 35.5 0.5 C37.20962961 0.54838268 38.91926502 0.59656079 40.62890625 0.64453125 C44.75267455 0.76067361 48.8763555 0.8795455 53 1 C52.34 2.65 51.68 4.3 51 6 C50.34 5.67 49.68 5.34 49 5 C49.33 4.67 49.66 4.34 50 4 C33.5 3.01 17 2.02 0 1 C0 0.67 0 0.34 0 0 Z " fill="#C4C4C4" transform="translate(386,743)"/>
<path d="M0 0 C1.32 0.66 2.64 1.32 4 2 C3.43466553 2.2371875 2.86933105 2.474375 2.28686523 2.71875 C-0.51248016 4.28712458 -2.36313661 6.18943431 -4.58984375 8.5 C-5.89018555 9.8303125 -5.89018555 9.8303125 -7.21679688 11.1875 C-9.02871167 13.06054904 -10.83861382 14.93554715 -12.64648438 16.8125 C-13.94875977 18.1428125 -13.94875977 18.1428125 -15.27734375 19.5 C-16.06359131 20.3146875 -16.84983887 21.129375 -17.65991211 21.96875 C-20.04299131 24.03731745 -22.01961398 25.02842914 -25 26 C-20.03805145 20.00499003 -14.6523376 14.53572963 -9.125 9.0625 C-8.24585938 8.18787109 -7.36671875 7.31324219 -6.4609375 6.41210938 C-4.3095654 4.27242952 -2.15588208 2.13513403 0 0 Z " fill="#3C3C3C" transform="translate(511,499)"/>
<path d="M0 0 C0 4.91427239 -3.68364447 7.61267188 -7 11 C-8.77893247 12.55379786 -10.5954647 14.04954764 -12.421875 15.546875 C-14.81811344 17.75331237 -16.33932918 20.21007302 -18 23 C-14.04 23.99 -10.08 24.98 -6 26 C-6 26.66 -6 27.32 -6 28 C-8.12898327 27.60418903 -10.2531956 27.18264558 -12.375 26.75 C-13.55835938 26.51796875 -14.74171875 26.2859375 -15.9609375 26.046875 C-19 25 -19 25 -20.4140625 22.890625 C-20.70410156 21.95476563 -20.70410156 21.95476563 -21 21 C-19.625 19.5 -19.625 19.5 -18 18 C-17.34 18 -16.68 18 -16 18 C-15.34 16.68 -14.68 15.36 -14 14 C-13.34 14 -12.68 14 -12 14 C-11.74089844 13.401875 -11.48179687 12.80375 -11.21484375 12.1875 C-9.9083696 9.83500635 -8.65883887 8.65903807 -6.5625 7 C-3.96182322 4.86527781 -1.85750071 2.84088344 0 0 Z " fill="#606060" transform="translate(346,663)"/>
<path d="M0 0 C7.92 0 15.84 0 24 0 C24 0.66 24 1.32 24 2 C23.43490723 2.02505615 22.86981445 2.0501123 22.28759766 2.07592773 C19.73316258 2.19179956 17.1791045 2.31456537 14.625 2.4375 C13.73554687 2.47681641 12.84609375 2.51613281 11.9296875 2.55664062 C11.07890625 2.59853516 10.228125 2.64042969 9.3515625 2.68359375 C8.56604004 2.72025146 7.78051758 2.75690918 6.97119141 2.79467773 C4.92476504 2.890891 4.92476504 2.890891 3 4 C2.01 3.34 1.02 2.68 0 2 C0 1.34 0 0.68 0 0 Z " fill="#717171" transform="translate(585,745)"/>
<path d="M0 0 C-4.60087023 1.37047198 -9.19265172 2.49416684 -13.88671875 3.49609375 C-16.1572739 3.9929691 -16.1572739 3.9929691 -18.875 5.0625 C-23.50465094 6.45139528 -28.19300831 6.67497209 -33 7 C-33 6.67 -33 6.34 -33 6 C-31.4176994 5.66179834 -29.83410625 5.32964061 -28.25 5 C-27.36828125 4.814375 -26.4865625 4.62875 -25.578125 4.4375 C-23 4 -23 4 -19 4 C-19 3.34 -19 2.68 -19 2 C-16.58525383 1.46839543 -14.16891893 0.94945234 -11.75 0.4375 C-10.72712891 0.21030273 -10.72712891 0.21030273 -9.68359375 -0.02148438 C-6.18230962 -0.75233495 -3.39701827 -1.32203546 0 0 Z " fill="#747474" transform="translate(757,334)"/>
<path d="M0 0 C0 3.7185142 -0.85912168 4.31804606 -3.3125 7 C-3.92738281 7.680625 -4.54226563 8.36125 -5.17578125 9.0625 C-6.75544728 10.74026092 -8.35810926 12.38336911 -10 14 C-10.99 13.67 -11.98 13.34 -13 13 C-8.71 8.71 -4.42 4.42 0 0 Z " fill="#C4C4C4" transform="translate(291,591)"/>
<path d="M0 0 C0.33 0.99 0.66 1.98 1 3 C-2 6 -5 9 -8 12 C-8.33 11.01 -8.66 10.02 -9 9 C-6.03 6.03 -3.06 3.06 0 0 Z " fill="#222222" transform="translate(568,637)"/>
<path d="M0 0 C0 3.58912412 -0.66436554 4.10857029 -3 6.6875 C-3.556875 7.31011719 -4.11375 7.93273437 -4.6875 8.57421875 C-5.120625 9.04472656 -5.55375 9.51523437 -6 10 C-6.99 9.67 -7.98 9.34 -9 9 C-6.03 6.03 -3.06 3.06 0 0 Z " fill="#B4B4B4" transform="translate(319,563)"/>
<path d="M0 0 C0.66 0.33 1.32 0.66 2 1 C-0.31 3.64 -2.62 6.28 -5 9 C-5.99 8.67 -6.98 8.34 -8 8 C-5.36 5.36 -2.72 2.72 0 0 Z " fill="#B1B1B1" transform="translate(332,550)"/>
<path d="M0 0 C0 4.38968456 -2.12805101 5.76905739 -5 9 C-5.99 8.67 -6.98 8.34 -8 8 C-5.36 5.36 -2.72 2.72 0 0 Z " fill="#BCBCBC" transform="translate(300,582)"/>
<path d="M0 0 C0 4.38968456 -2.12805101 5.76905739 -5 9 C-5.99 8.67 -6.98 8.34 -8 8 C-5.36 5.36 -2.72 2.72 0 0 Z " fill="#B9B9B9" transform="translate(309,573)"/>
<path d="M0 0 C0.99 0.33 1.98 0.66 3 1 C0.03 3.475 0.03 3.475 -3 6 C-2.42655063 3.13275314 -2.1385485 2.1385485 0 0 Z " fill="#3C3C3C" transform="translate(282,727)"/>
<path d="M0 0 C0.33 0.99 0.66 1.98 1 3 C-1.97 5.475 -1.97 5.475 -5 8 C-5.66 7.67 -6.32 7.34 -7 7 C-4.69 4.69 -2.38 2.38 0 0 Z " fill="#626262" transform="translate(508,182)"/>
<path d="M0 0 C0.33 0.99 0.66 1.98 1 3 C-0.65 4.65 -2.3 6.3 -4 8 C-4.66 7.67 -5.32 7.34 -6 7 C-4.02 4.69 -2.04 2.38 0 0 Z " fill="#525252" transform="translate(618,666)"/>
<path d="M0 0 C0.99 0.99 1.98 1.98 3 3 C1.35 3.33 -0.3 3.66 -2 4 C-2 4.99 -2 5.98 -2 7 C-2.66 7 -3.32 7 -4 7 C-2.92598892 4.08482708 -2.22189824 2.22189824 0 0 Z " fill="#525252" transform="translate(644,631)"/>
</svg>
